<?xml version="1.0" encoding="UTF-8"?>
<svg xmlns="http://www.w3.org/2000/svg" id="Layer_1" data-name="Layer 1" viewBox="0 0 666.68 534.88">
  <defs>
    <style>.cls-1{fill:#fff;}.cls-2{fill:#faa61a;}.cls-3{fill:#1f4ba0;}</style>
  </defs>
  <title>Logo_Seal_Vector</title>
  <path class="cls-1" d="M542.26,286.19a14.14,14.14,0,0,0,1.67-10.89c-1.44-6.53-7.37-12-13.52-12.09a14.7,14.7,0,0,0-13.67,7.54c-3,5-2.33,10.2.45,15.11,2.91,5.14,9.88,7.8,15,6.06,1.16-.4,1.63-.89,1.26-2-1.27-3.78-2.6-7.55-3.92-11.34A15,15,0,0,1,528,279c-2.34.35-2.59,1.61-1.76,3.59.69,1.64,1.16,3.37,1.78,5.21-6.72-.74-9.28-5.87-8.07-12.18,1-5.45,5.46-8.23,11.78-7.37a8.54,8.54,0,0,1,6.15,4.24c2.37,3.81,1.85,7.71.6,11.73ZM234.85,144.51l10.74,25.14,4.19-1.91-7-16.72.59-.31,15.08,10.13c3.45,2.32,3.86,2.31,7.2-.18l-10.65-25-4.24,1.84,7.08,16.89-.51.35C252.2,151.28,246.94,148,242,144.3,239.37,142.38,237.3,142.67,234.85,144.51ZM292,129.46c-4.93-2.69-6.65-3-11.61-2.21A14.61,14.61,0,0,0,268,141.08c-.14,8.76,7.55,17,17.81,14.71,7.28-1.6,11.11-6.32,11.26-14a14.8,14.8,0,0,0-.72-3.32l-13.09,3.18,1.08,4.13,7.6-1.65c.14,3.14-1.67,5.54-4.9,6.74-4.23,1.57-9.48.3-12-2.89a10.7,10.7,0,0,1-.46-12.25c2.87-4.15,7.47-5,15.26-2.57ZM135.24,251.61c-7.37,2.27-11.32,10.68-10.21,17.07,1.2,6.92,8.17,12.75,14.66,12.2,8.75-.74,13.6-5.78,14.65-14.9.53-4.61-3-11-9.31-12.67a6.73,6.73,0,0,0-.59,1C143,258,141.5,261.67,140,265.54l3.88,1.73c.58-1.33,1.1-2.46,1.58-3.62s1-2.39,1.45-3.63c2.72,1.79,3.61,4.88,2.62,8.4a10.78,10.78,0,0,1-9.67,7.57c-4.7,0-8.64-2.64-9.8-6.91s-.15-9.69,6.71-13.53Zm380.17,2.72-.41-.46a16.1,16.1,0,0,1,.77-1.81q4.1-7.12,8.25-14.21c2-3.37,2-3.69-.65-6.92L499.1,243.09l2.26,4.19,15.91-8.09a5.12,5.12,0,0,1-.7,2.91q-4,6.91-8,13.79c-1.83,3.09-1.78,3.8.83,6.65l24.31-12.27-2.09-4.14Zm-391,120.89c8.28.59,15-6.41,14.94-14.31A14.56,14.56,0,0,0,125,346.59a14.83,14.83,0,0,0-14.79,14.27C110.07,368.44,116.88,375.72,124.41,375.22ZM497,194.66,475.82,212.1l2.91,3.59,9.75-7.77c1.65,2,3.08,3.88,4.63,5.65,1.74,2,1.72,2.45-.39,4.11-2.46,1.93-4.89,3.89-7.45,5.93l3,3.7,21.39-17.49-3-3.59-8.27,6.61L492,205.09l8.18-7Zm-294.36,4.66-8.12-9.38,7.73-6.65,8.08,9.24,3.57-3-18-20.76-3.61,2.92,7,8.22-7.58,6.54-7.13-7.82-3.51,3,18.06,20.74Zm237-50.42-14.08,23.8a12.2,12.2,0,0,1,1.72,1.13c1.7,1.62,2.72.8,3.65-.88,1.5-2.7,3.09-5.35,4.64-8l.73.14a19.3,19.3,0,0,1,.3,2.81c-.1,2.81-.37,5.62-.44,8.43-.07,3,1.18,4.31,4.27,4.76l.63-13.34h2.09c3.47-.06,6-2,7.21-5.66a6.93,6.93,0,0,0-2.41-7.8C445.35,152.33,442.51,150.71,439.67,148.9ZM221.29,177.36c2.37-1.49,4.92-2.71,7-4.5,2.46-2.12,4.43-1.61,6.34.38,1.37,1.43,2.56,1.08,3.88.13.56-.4,1.11-.81,1.86-1.37l-2.07-1.55q-10.07-7.45-20.14-14.92a2.11,2.11,0,0,0-3.09.09c-.86.86-2.47,2-2.33,2.67,1.75,9.23,3.76,18.42,5.72,27.66,3.74-1.84,4.16-2.33,3.76-4.37C221.93,180.24,221.62,178.89,221.29,177.36ZM436.71,520.94c-6,.45-10.1,5-9,10.71,1.17,6.13,4.53,11.06,9.2,15.13a8.18,8.18,0,0,0,7.16,1.82,8.72,8.72,0,0,0,7-9.92c-1.09-6.32-4.55-11.25-9.25-15.31C440.46,522.18,438.44,521.73,436.71,520.94Zm-28.56,19.9a27.94,27.94,0,0,0,6.87,16c3,3.54,6.94,3.88,11,1.77a8.09,8.09,0,0,0,4.54-9.19,32.36,32.36,0,0,0-5.83-13.37c-2.57-3.55-6.82-5.19-10.26-4C410.87,533.33,407.69,536,408.14,540.84ZM133.81,383.93c6.7,4.47,7.5,10.6,4.8,15.26-2.55,4.41-8.76,6.05-13.39,3.53-5.14-2.8-7.14-8.91-3.48-15.69-.44-.3-.88-.64-1.35-.92-2.52-1.53-2.64-1.57-3.75,1.19-2.29,5.66-1.73,11.08,2.11,15.89a13.42,13.42,0,0,0,12.94,5.22c6.42-.81,11.92-5.61,12.8-11.9.82-5.91-2.17-13.68-8.46-16.2Zm43.35-192.47c-9.86.15-17.16,9.23-15.31,18.45,1.36,6.76,9.64,12.63,16.7,11.29s14.23-9.36,12.1-17.73l-4,.7c-.73,7.91-4.42,12.37-10.32,12.6-4.41.18-9.59-4.2-10-8.6-.21-2.4-.12-4.78,1.34-7,2.27-3.38,5.53-4.85,9.44-5.25ZM322.48,577.16l.6-4.41-10-1.25.79-7.88,10,.95c.93-5,0-5-3.49-4.84a23.2,23.2,0,0,1-4.88-.51c-.45-.08-1.15-.76-1.13-1.14.07-1.53.37-3,.61-4.72l10,1,.22-4.6-14.55-1.47c-.34,3.32-.63,6.33-1,9.33-.44,4-.92,8-1.36,12-.19,1.77-.87,3.73-.36,5.29.73,2.2,3.2.69,4.8,1.25a2,2,0,0,0,.44.17ZM309,138l9.66-1.27c.5-4.45.08-4.78-4.11-4a57.53,57.53,0,0,1-6,.57l-.65-5.61L318,126.36l-.77-4.42-14.6,1.7,3.25,27.41c4.57-.47,8.83-.83,13.06-1.37,2.45-.32,1.22-2.37,1.28-3.62.07-1.51-1-1.22-2.16-1-2.6.4-5.23.57-8,.85Zm54.89-14.49-5,27.2,14.73,2.69a9.3,9.3,0,0,1,.25-2.42c.77-1.8.19-2.28-1.67-2.48-2.65-.29-5.24-1-7.88-1.57l1.56-7.8c1.92.32,3.61.51,5.25.89,4.4,1,4.39,1.06,5.4-3.19,0-.07,0-.15-.11-.39l-9.9-1.89,1.27-5.59,9.68,1.67,1-4.41Zm-225.1,174.7c-2-.51-3.73-1-5.46-1.35-1.92-.34-2.5-1.25-1.84-3.11a46,46,0,0,0,1.55-5.36c.21-1,.66-2.35-1.16-2.44-1.24-.06-2.86-1.6-3.29,1.22a70.74,70.74,0,0,1-2.12,7.94L121,293.46l2.41-9.7-4.36-1-3.71,14.19,26.71,7,3.72-14.41-4.49-.84Zm290.54-149.5,1.91-4L418,138.47c-1.83,3.82-3.61,7.46-5.32,11.12-1.88,4-3.75,8.05-5.51,12.13-.26.61-.11,2,.27,2.19,4,2,8.11,3.81,12.35,5.75l1.75-4.18c-2.73-1.28-5.22-2.39-7.62-3.65a2,2,0,0,1-.85-1.67c.8-2.1,1.83-4.11,2.82-6.26l9.25,4.18,1.74-4c-1.42-.65-2.77-1.25-4.1-1.88-1.54-.74-3.94-1.19-4.36-2.35s.93-3.19,1.53-4.82c0-.11.23-.16.48-.34ZM148.28,240a17.18,17.18,0,0,0-2.85-1.69c-2.38-.86-1.9-2-.78-3.67,1.35-2,2.47-4.11,3.79-6.35l-4-2.14L137,238.74l23.77,14,7.46-12.66a13.58,13.58,0,0,1-1.79-1.11c-1.68-1.49-2.59-.84-3.45,1a41.25,41.25,0,0,1-3.1,5.23,1.81,1.81,0,0,1-1.6.63c-2.06-1-4-2.26-6.12-3.47l5-8.74-3.76-2.22c-1,1.62-1.75,3-2.55,4.3S149.21,238.47,148.28,240ZM400.76,563.22l-.52-.53c.3-.76.61-1.52.9-2.29,1.19-3.19,2.48-6.35,3.54-9.59a8.5,8.5,0,0,0-5.86-10.89,9.61,9.61,0,0,0-11.44,7.87c-.41,3.32.48,4.05,3.56,2.93.42-.15.84-.33,1.22-.48-.74-2.25,0-4.17,1.77-5.15a5.7,5.7,0,0,1,4.35-.25c2.09.87,2.63,3.08,2.27,5.19a19.69,19.69,0,0,1-1.69,5c-1.83,3.88-3.86,7.67-5.7,11.55a18.31,18.31,0,0,0-.76,3.82l18.35-5.88c-.41-4-.9-4.29-4.49-3.08C404.44,562.1,402.6,562.65,400.76,563.22ZM392,150.38l-1.07-.33c0-6.2.05-12.41-.06-18.61a3.83,3.83,0,0,0-1.3-2.66c-.85-.65-2.14-.73-3.47-1.13,0,.94-.14,1.7-.11,2.45.14,3.13.36,6.26.47,9.39.19,5.34.25,10.68.54,16a2.79,2.79,0,0,0,1.71,1.89c1.1.33,3,.63,3.47.06,5.8-7.35,11.4-14.86,17.1-22.39a14.77,14.77,0,0,0-3.06-1.1,2.75,2.75,0,0,0-2.18.66c-2.21,2.74-4.25,5.61-6.38,8.41C395.77,145.51,393.86,147.94,392,150.38ZM331.58,570.52c-.61.33-1.26.75-2,1.06-1.61.71-1.82,1.54-.7,3a9.09,9.09,0,0,0,8.34,3.83c4.77-.32,8.95-4.52,7.11-9.64-.8-2.22-2.67-4.13-4.33-5.93s-3.76-3.09-5.4-4.86c-.59-.63-.86-2.47-.41-2.93a4.84,4.84,0,0,1,3.24-1,3.24,3.24,0,0,1,2.17,1.26c1,1.36,1.79.64,2.73,0a26.79,26.79,0,0,1,2.57-1.45c-1.38-1.16-1.92-1.63-2.48-2.07-2.74-2.13-5.66-3.36-9.11-1.74-5.05,2.37-5.79,7.56-1.57,11.69,2.24,2.19,4.72,4.15,7,6.33,1.57,1.52,1.73,3.63.62,4.83a4,4,0,0,1-5.32.22A27.67,27.67,0,0,1,331.58,570.52Zm-6.94-426.46c1.6,5.88,9.14,7,13.13,4.56a7,7,0,0,0,3.45-6.22c.18-4.09-2.57-6.19-5.11-8.51-1.67-1.52-3.51-2.88-5.07-4.51a2.75,2.75,0,0,1-.53-2.52,2.93,2.93,0,0,1,2.45-1.22,30.6,30.6,0,0,1,5,2l2.51-3a32.09,32.09,0,0,0-3.37-2.68,7.32,7.32,0,0,0-8.1,0c-2.34,1.46-3.88,3.59-3.15,6.5a9.38,9.38,0,0,0,2,4c2.41,2.57,5.22,4.78,7.61,7.37a4.09,4.09,0,0,1,.89,3.53,3.64,3.64,0,0,1-3.15,1.63c-1.87-.41-3.57-1.6-5.35-2.47l.25-.69ZM460,161.5c-.7,3.77-1.34,7.25-2,10.73s-.84,6.87-3.56,9.6a60.16,60.16,0,0,0-4.89,6.36l3.62,2.86c1-1.26,1.81-2.38,2.69-3.47,2.49-3.07,4.59-6.44,8.68-7.93s7.88-3.52,12-5.39a11.22,11.22,0,0,1-1.32-1c-1.64-1.77-3.28-2.1-5.5-.75a77.9,77.9,0,0,1-7.83,3.65c.66-3.55,1.14-6.68,1.86-9.76.29-1.25.22-2-.92-2.74A30.78,30.78,0,0,1,460,161.5ZM347.76,554.38h4.85l2.19,22.74,4.7-.71-2.05-22.7,5.11-.6-.46-4.62-15,1.43ZM468.67,204.93l15.81-16.46,3.77,3.21,3.14-3.21L480.5,178.2l-2.77,3.27c3.37,3.82,3.37,3.82,0,7.23-.39.39-.79.77-1.17,1.17l-11.26,11.85ZM137.84,339.33l.88-12.52c-.65,0-1.34,0-2-.13-2.15-.32-3,.5-2.81,2.73.16,1.53,0,3.1,0,4.94l-23.2-1.43-.58,4.73Zm-1-30.89-1.3,7.74-22.83-3.61-.7,4.66,27.21,4.31,2-12.24ZM468.92,530.93l-17-21.59c-5.47,3.12-6.8,5.48-5.17,9.22l4.17-3,14.33,18.07Zm25.92-293.75,22.91-15.37L515.19,218l-22.91,15.4Zm-123,338c1.88,0,2.93-.52,3-2.41a2.3,2.3,0,0,0-2.41-2.72,2.45,2.45,0,0,0-2.8,2.47C369.62,573.82,370.14,575.31,371.81,575.16Z" transform="translate(-25.03 -82.18)"></path>
  <path class="cls-2" d="M84.93,446.13c-.33-1.19-.58-2.22-.9-3.23-2.56-8.15-5.45-16.2-7.61-24.45a269.4,269.4,0,0,1-5.74-26.67c-1.35-8.66-1.88-17.45-2.53-26.21-.47-6.34-.82-12.72-.72-19.08.11-7.52.68-15,1.21-22.54,1.12-15.85,4.64-31.26,8.64-46.57a210.88,210.88,0,0,1,13.87-38c3.78-7.89,7.74-15.71,12-23.37a215.06,215.06,0,0,1,24.09-35c5.48-6.48,10.86-13.09,16.84-19.1a271.77,271.77,0,0,1,30.15-26.24,276.17,276.17,0,0,1,47.86-28.63,248.82,248.82,0,0,1,43.88-15.94c9.86-2.54,19.93-4.29,30-6.11a123.61,123.61,0,0,1,16.27-1.91c11.56-.53,23.13-1.06,34.69-.89A170,170,0,0,1,370,84.52c10.07,1.54,20.18,3.14,30,5.63a251.43,251.43,0,0,1,29.79,9.52c11,4.28,21.75,9.16,32.24,14.51a225.69,225.69,0,0,1,23.71,14.38A261.36,261.36,0,0,1,518.86,155a223.31,223.31,0,0,1,21.82,23.3c3.48,4.38,7.29,8.5,10.7,12.93,2.93,3.82,5.5,7.91,8.23,11.89,2.27,3.32,4.66,6.57,6.77,10,2.62,4.24,5,8.61,7.49,13,1.79,3.18,3.54,6.38,5.2,9.63,1.79,3.52,3.55,7.06,5.16,10.67,1.74,3.89,3.47,7.81,4.87,11.83,2.92,8.35,5.67,16.76,8.38,25.18,1.19,3.69,2.3,7.42,3.14,11.21.49,2.22,1.44,2.34,3.32,1.76,4.24-1.31,8.54-2.42,12.81-3.64l36.41-10.4c2.31-.66,3.35-.08,4,2.22,3,10.06,6,20.1,8.9,30.18,4.89,16.89,9.7,33.79,14.57,50.68,3.45,12,6.9,23.91,10.43,35.84,1.23,4.15,1,4.9-3.13,6.08q-27.21,7.86-54.43,15.68c-12.15,3.52-24.27,7.13-36.41,10.69a58.89,58.89,0,0,1-7.21,1.91,3.08,3.08,0,0,0-2.75,2.45,192.48,192.48,0,0,1-12.41,30,261.67,261.67,0,0,1-20.95,35.21,299.65,299.65,0,0,1-24.53,30.11,262.51,262.51,0,0,1-35.42,31.33,253.09,253.09,0,0,1-45.65,27.18c-8.36,3.87-17,7.07-25.69,10.25a170,170,0,0,1-18.42,5.71c-10,2.43-20.07,4.64-30.2,6.44a167,167,0,0,1-19.31,1.93c-8.7.52-17.42,1-26.13.94a184.59,184.59,0,0,1-19.12-1.41c-6.88-.75-13.78-1.52-20.56-2.85-8.88-1.74-17.64-4-26.46-6.07-11.79-2.7-22.89-7.32-34-12a239.53,239.53,0,0,1-45.11-25.14c-5-3.53-9.86-7.2-14.69-10.94A4.52,4.52,0,0,0,164,558c-12,3.6-23.94,7.27-35.94,10.77-14.61,4.26-29.27,8.38-43.91,12.56L64.25,587c-3.33.95-4.18.53-5.14-2.78-2.56-8.9-5-17.82-7.61-26.71-1.94-6.65-4.13-13.22-6-19.87-4.25-14.71-8.4-29.46-12.59-44.19q-3.78-13.28-7.57-26.56c-.69-2.41-.13-3.61,2.45-4.36,7.6-2.23,15.23-4.37,22.84-6.57,9.27-2.68,18.53-5.39,27.8-8.07C80.47,447.26,82.57,446.75,84.93,446.13ZM579.84,302.75a13.46,13.46,0,0,0-.2-2.3c-3.36-12-6.26-24.24-10.28-36.06a243.8,243.8,0,0,0-11.92-27.7,224,224,0,0,0-20.61-33.93,237.17,237.17,0,0,0-22.25-26.48c-4.24-4.32-8.58-8.57-13.1-12.6a202,202,0,0,0-15.62-13c-7-5.07-14.22-9.89-21.66-14.28a287.67,287.67,0,0,0-26.73-14.34c-9-4.11-18.52-7.29-27.93-10.52a194.65,194.65,0,0,0-40.41-9.23c-8.58-1-17.21-2.05-25.83-2.28-8.93-.23-17.89.36-26.82.88a144.25,144.25,0,0,0-18.09,1.92c-10.17,1.9-20.28,4.16-30.34,6.61-14.94,3.65-29.09,9.59-42.86,16.25-8.89,4.3-17.27,9.69-25.67,14.92-5.51,3.43-10.74,7.35-16,11.23-3.93,2.92-7.76,6-11.42,9.24-5.34,4.74-10.55,9.62-15.68,14.59-2.18,2.11-4,4.56-6,6.88-4.44,5.23-9.1,10.3-13.22,15.77-8,10.64-15.47,21.69-21.36,33.68-4.08,8.3-8,16.69-11.58,25.23A193.24,193.24,0,0,0,96.52,279c-2.51,8.91-4.41,18-6.23,27.09-1.27,6.38-2.1,12.86-2.85,19.33a135.38,135.38,0,0,0-.94,14.5c-.06,6.84,0,13.69.47,20.51.53,8,1.31,16,2.37,23.93.91,6.82,2.11,13.62,3.63,20.33a223.38,223.38,0,0,0,10.41,33.39c.6,1.52,1.21,1.74,2.57,1.33,4.06-1.23,8.14-2.41,12.21-3.58,4.82-1.39,9.66-2.72,14.48-4.11,7.79-2.25,15.57-4.54,23.36-6.78,4.79-1.37,9.59-2.69,14.21-4-22.4-58-19.92-114.1,13.4-166.91s82.43-80.3,144.65-83.68c38.17-2.08,73.58,8,105.36,29,44.13,29.2,70.11,70.55,79.14,122.79Zm-115,33.36a26.15,26.15,0,0,0,2.75-.45c9.65-2.71,19.3-5.43,28.92-8.25a2.11,2.11,0,0,0,.93-1.76c-.2-1.93-.65-3.83-1-5.75a160.31,160.31,0,0,0-12.67-38.18c-4.51-9.6-9.68-18.92-16.41-27.2-5.7-7-11.34-14.12-17.74-20.45a145.93,145.93,0,0,0-23.7-18.91,168.25,168.25,0,0,0-41.4-19.68A161,161,0,0,0,344.31,188,164.62,164.62,0,0,0,310,189.78a160.31,160.31,0,0,0-30,7.68,246.25,246.25,0,0,0-23.3,10.46c-14,6.93-26.12,16.54-37.23,27.4a161.47,161.47,0,0,0-21.25,25.83,163.52,163.52,0,0,0-20.76,44,167.47,167.47,0,0,0-6.1,63.69,146.1,146.1,0,0,0,3.79,21.62c2.26,8.64,5.4,17.05,8.22,25.54.18.55,1,1.4,1.32,1.32,1.42-.32,3.07-.62,4.07-1.55.76-.71.94-2.35.89-3.56s-1-2.51-1-3.78c-.16-3.39,0-6.79,0-10.18,0-8.61,0-17.21.07-25.82,0-.89.68-2.36,1.34-2.55a30.57,30.57,0,0,1,5.54-.64l-.41-.6,2-2.7,1.61,2.58,9-.67c.3-2.25.49-4,.78-5.67s2.52-3.13,0-4.79c-.17-.12,0-.75,0-1.14.13-3.3.29-6.59.37-9.89.18-7.28.36-14.55.44-21.83,0-1.46.4-2.21,1.91-2.31,3.76-.25,7.51-.62,11.26-.8,1.91-.09,4-.3,5.3,1.65.08.12.43,0,.65.08.89.23,2.46.38,2.52.74a10.4,10.4,0,0,1-.54,3.24,6,6,0,0,0-.29,2.1c.24,1.28,1.05,2.51,1,3.76,0,4.59-.28,9.18-.41,13.77-.18,6.29-.3,12.57-.48,18.86a2.74,2.74,0,0,0,1.63,3c1.69.91,3.72,2.28,4.3,3.9.72,2.05,1.8,2,3.31,2,3.2,0,6.41,0,9.61,0-.48,3.51-.89,6.71-1.36,9.91-.29,1.93-.06,4.45-1.19,5.61-1.44,1.47-.64,2.94-.86,4.22-.3,1.74.71,3.71,1.27,6.05,1.83-.57,4.54-.61,5.4-1.88,1.07-1.6,2.44-1.82,3.7-2.19,11.49-3.35,23-6.49,34.55-9.78,15.77-4.52,31.53-9.11,47.28-13.68,4.15-1.2,8.29-2.46,12.44-3.66,6.75-2,13.53-3.81,20.25-5.87,1.9-.58,4.39-.27,5.36-2.79.07-.18.69-.23,1-.22,1.21,0,2.51.44,3.61.13,8.54-2.42,17-5,25.54-7.53a8.39,8.39,0,0,0,2-1.34c1,1.2,4.12.93,6.37-1a51.79,51.79,0,0,0-13.27-22c1.78-3.12,3.42-6,5.08-8.89a3.86,3.86,0,0,1,.81-1.09,35.11,35.11,0,0,1,4.3-3.28,5.42,5.42,0,0,1,3.47-.83c1,.2,1.77,1.37,2.48,2.24.2.24-.09,1-.34,1.45-.46.77-1.07,1.46-1.79,2.42l2.52.69-.2-.61,2.89-2.22.68.31c0-4.48.06-9,0-13.45,0-2.66-.38-5.32-.45-8,0-1.23.63-2.57.33-3.69-.54-2-.72-3.76,1.17-5.22-2.19-1.11-1.89-2.14-.07-3.05-2.11-2-1.78-12.4.53-15l-2-1.09a35.54,35.54,0,0,1,.1-6.09,5,5,0,0,1,2.13-3.2c2.88-1.53,6-2.55,9-3.94q7.29-3.42,14.47-7.06c2-1,3.89-2.34,6.05-3.65a20.91,20.91,0,0,1,.61,3.59q-.14,7.55-.49,15.1a7.33,7.33,0,0,1-.71,2.08,6.12,6.12,0,0,1,.84,2c.19,5.81.36,11.62.39,17.43,0,2.65-.37,5.31-.43,8,0,1.24.4,2.48.38,3.72-.07,4.56-.28,9.11-.35,13.67,0,.61.32,1.6.75,1.77,2.79,1.13,5.59,2.65,8.49,2.92s3.06,1.42,3,3.68C464.74,324.69,464.82,330.28,464.82,336.12ZM191,551c27.77,19.42,57.68,33,90.42,40.3a248.44,248.44,0,0,0,190.46-34.82c42.53-28,73.36-65.87,93.51-113.25-12.89,3.67-25.05,7.13-37.2,10.6q-10.36,3-20.7,6c-12.68,3.68-25.34,7.44-38,11-2.68.76-4.42,2.52-6.18,4.39a29.2,29.2,0,0,1-2.44,2.82c-7.43,6.09-14.76,12.3-22.4,18.12-13.61,10.39-28.92,17.71-45,23.18-11.12,3.77-22.51,6.81-34.29,7.9-7.53.7-15.07,1.68-22.61,1.77a161,161,0,0,1-21.27-1.38c-7.29-.88-14.5-2.41-21.74-3.69-2.48-.44-4.77-1.29-7.49-.41-7.85,2.55-15.82,4.75-23.75,7-7.41,2.14-14.84,4.2-22.24,6.36-7.19,2.1-14.33,4.34-21.53,6.4C209.44,545.89,200.37,548.36,191,551Zm-3.83-126.49c.48,1.23.8,2.28,1.29,3.24,1.56,3,1.59,3,4.91,2.09q11.22-3.17,22.44-6.36,21.55-6.17,43.1-12.38,20.51-5.92,41-11.9t41.26-11.92c13.46-3.9,26.9-7.85,40.37-11.73,14.51-4.18,29-8.28,43.55-12.46q20.41-5.88,40.79-11.84l27.38-8,6.07-1.79-.8-6.8Zm198.91,7a23.59,23.59,0,0,0,3.17-.85c1.67-.74,2.32-.54,2.86,1.5,2.05,7.73,4.43,15.37,6.68,23l14.7-4.33-17-59.05c-4.35,1.27-8.54,2.63-12.8,3.68-1.63.4-1.9,1.05-1.49,2.44q1.67,5.67,3.31,11.34c.79,2.73,1.54,5.47,2.35,8.33l-5.51,1.32-6.09-21.3-14.8,4.27,17,59.1c4.46-1.27,8.82-2.54,13.21-3.72,1.19-.32,1.5-.78,1.14-2-1.65-5.55-3.23-11.12-4.82-16.69C387.35,436.23,386.76,433.92,386.09,431.45Zm84.85-34.36-1.12.57c-5.5-7.25-10.22-15.06-15.41-22.5l-12.27,3.56,17,59.14,12.17-3.58c-1.86-6.59-3.65-12.82-5.38-19.07-.57-2-1-4.1-1.52-6.15l.92-.34a20.39,20.39,0,0,1,1.5,1.86c4.14,6.54,8.24,13.1,12.41,19.63.38.59,1.28,1.41,1.73,1.3,4.06-1.06,8.07-2.31,12.18-3.52l-16.94-59L464,372.48ZM71.67,484.64l17,59.22,14.77-4.25c-2.33-8.14-4.55-16-6.84-23.87-1-3.46-.59-4.07,3-3.54a2.9,2.9,0,0,1,1.9,1.38,34.17,34.17,0,0,1,1.93,5.19c1.84,6.28,3.62,12.58,5.52,19.23l13.45-3.76a6,6,0,0,0,0-1.5c-1.47-5-2.91-10.09-4.49-15.09a39.34,39.34,0,0,0-3.12-8.16c-1.75-3-5.08-3.54-9.07-3.79,1-.81,1.55-1.24,2.09-1.63,2.56-1.82,4.63-4,3.74-7.43a68.22,68.22,0,0,0-3.86-12.07,10.6,10.6,0,0,0-12.58-6.08C87.33,480.31,79.62,482.54,71.67,484.64Zm519-118.15c.77-.51,1.31-.91,1.9-1.24,2.61-1.5,4.49-3.6,4.09-6.74a36.66,36.66,0,0,0-4.64-14,10.66,10.66,0,0,0-11.35-4.93c-7.49,1.85-15,3.83-22.44,5.7-1.19.3-1.62.76-1.18,2,.32.87.49,1.79.74,2.68q3.8,13.36,7.61,26.73c2.52,8.83,5,17.67,7.64,26.48.18.62,1.4,1.49,1.9,1.36,4.45-1.18,8.85-2.55,13.33-3.89-2.27-9.21-5.46-18-7.36-27.11,5.27-.37,5.34-.39,6.74,4.13,1.35,4.35,2.52,8.75,3.81,13.12.81,2.76,1.69,5.51,2.56,8.32l13.51-4c-1.77-6.39-3.35-12.51-5.2-18.56-1-3.22-1.82-6.79-5.33-8.36C595.22,367.37,593.19,367.13,590.69,366.49ZM159,550.93a60,60,0,0,0-4.93-4.28,4.23,4.23,0,0,0-3.09-.74q-20.31,5.65-40.55,11.54c-11.08,3.22-22.12,6.57-33.19,9.81-3.29,1-4.11.45-4.88-2.88-1-4.25-2.35-8.41-3.56-12.61q-6.22-21.58-12.45-43.16-4.86-16.85-9.7-33.7c-.53-1.83.22-3.06,2-3.41.53-.1,1.06-.2,1.58-.35,9-2.58,17.92-5.14,26.86-7.77,4.52-1.33,9-2.76,13.71-4.22a39.11,39.11,0,0,1-1.66-4c-.5-1.74-1.28-2.15-3.11-1.61-10.94,3.23-21.93,6.31-32.9,9.46-4.41,1.27-8.8,2.58-13.19,3.92-3.57,1.08-4,1.87-2.84,5.45q1,3.13,1.87,6.27,5.15,18,10.28,36c2.54,8.84,5.15,17.66,7.7,26.5,3.2,11.08,6.37,22.16,9.59,33.23.59,2,1.89,2.63,4,2,8.51-2.49,17-4.88,25.56-7.31q27.46-7.83,54.92-15.68C153.54,552.7,156,551.86,159,550.93ZM509.65,382.39c4.55-1.33,8.83-2.63,13.15-3.81,1.15-.32,1.63-.54,1.09-1.87-1.08-2.64-1.9-5.37-2.92-8-1.71-4.49-5-7-9.63-8.32-4.85-1.43-9.42-.46-13.81,1.21-7.82,3-13.47,10.29-10.42,19.75,2.65,8.23,4.46,16.72,7,25,1.59,5.27,2.83,10.84,7.67,14.48a14.33,14.33,0,0,0,9.52,3.09c4.89-.32,9.11-2.37,11.11-7.4.47-1.17,1.54-1.53,2.07-.35,1.2,2.66,2.89,2.45,5.08,1.51a21.05,21.05,0,0,1,4.23-1.17c1.25-.25,1.41-.65,1-1.92-2-6.57-3.84-13.2-5.72-19.8-.94-3.32-1.85-6.65-2.81-10.09l-17.41,5,2.2,8.15,3.54-.26,2.71,10.81q.94,3.74-1.84,4.62c-2.09.67-3.15,0-4-2.72-2.86-9.46-5.72-18.92-8.44-28.42-.87-3-1.35-6.18-2-9.29-.32-1.66.82-2.2,2.15-2.46,2-.38,2.9.74,3.41,2.41C507.61,375.69,508.59,378.93,509.65,382.39ZM170.34,456.64c-6.93,2-13.53,3.83-20.15,5.67-1.32.37-1.93.83-1.51,2.45a64.31,64.31,0,0,1,1.22,7.33c.83,5.92,1.56,11.85,2.43,17.76,1.2,8.13,2.48,16.24,3.74,24.35.5,3.26,1,6.51,1.59,10l15-4.29a12.07,12.07,0,0,0,0-2.14c-.47-2.51-.9-5-1.58-7.49-.34-1.23-.18-1.75,1.07-2a8.44,8.44,0,0,0,2.23-.6c2.09-1,3.19,0,3.85,1.84.89,2.54,1.75,5.1,2.72,8l15.09-4.39Zm285.19-17.75-25.79-56.65c-6.44,1.9-12.74,4-19.18,5.54-2.62.62-2.65,1.82-2.35,3.75.44,2.83.89,5.66,1.32,8.49.69,4.6,1.32,9.21,2,13.81.87,5.66,1.85,11.31,2.69,17,.86,5.83,1.57,11.69,2.46,17.51.07.47,1.14,1.25,1.54,1.14q6.5-1.7,12.9-3.73a2.15,2.15,0,0,0,.92-1.84c-.41-2.59-1.11-5.13-1.54-7.72-.11-.64.23-1.86.64-2a53.33,53.33,0,0,1,5.51-1.34c1.15,3.19,2.15,6,3.22,8.84.34.88.71,1.48,2.07,1C446.23,441.35,450.57,440.26,455.53,438.89Zm135.66-13a5.27,5.27,0,0,0,1.3.1c6.46-1.76,12.93-3.48,19.36-5.34,10.32-3,20.6-6.09,30.9-9.1,11.36-3.33,22.73-6.59,34.08-9.93,2.74-.81,3.13-1.69,2.33-4.47q-8.84-30.68-17.68-61.36-5.91-20.52-11.8-41.05c-.72-2.5-1.77-3-4.41-2.29-10.42,3-20.83,6-31.25,9-4.41,1.26-8.87,2.34-13.27,3.64-.71.21-1.76,1.16-1.71,1.68a32.52,32.52,0,0,0,1.28,5.57,4.89,4.89,0,0,0,1.54-.21q18.71-5.37,37.41-10.78c2.72-.79,3.4-.52,4.23,2.31,3.26,11.13,6.46,22.28,9.69,33.43,2.88,9.94,5.81,19.87,8.67,29.82,2.49,8.69,4.91,17.4,7.36,26.09.75,2.67.46,3.4-2.13,4.2-3.34,1-6.73,1.9-10.09,2.88-12.32,3.59-24.63,7.23-37,10.79-8.14,2.35-16.31,4.57-24.45,6.92-.83.24-1.94.73-2.23,1.41C592.49,421.2,591.95,423.4,591.18,425.84ZM362.6,428.93c-1.73-4.88-3.22-9.66-5.13-14.28-1.58-3.83-4.55-6.15-8.67-7.44-5.13-1.61-9.85-.48-14.53,1.16-7.34,2.58-14.36,10.36-11,19.43.5,1.37.6,2.87,1,4.28,2.85,9.54,5.53,19.14,8.68,28.58A13.18,13.18,0,0,0,343.37,470c7.2,1.37,13.6-.75,19.19-5,4.08-3.09,6.57-7.47,5.76-12.84-.64-4.24-1.84-8.39-2.81-12.65-4.5,1.35-8.59,2.82-12.79,3.73-2.21.48-1.89,1.3-1.51,2.87.91,3.74,1.66,7.53,2.38,11.32.34,1.77-.9,2.27-2.34,2.52-3.2.56-3.55-2.09-4.13-4-2.65-8.63-5.12-17.32-7.61-26-.81-2.82-1.52-5.66-2.23-8.51-.76-3,.46-4.47,3.44-4.56,2.3-.07,2.45,1.71,2.89,3,1.25,3.81,2.25,7.7,3.41,11.55.25.82.38,1.84,1.85,1.4C353.3,431.52,357.76,430.3,362.6,428.93Zm272.31-86.74c-1.1-2.9-2.1-5.72-3.23-8.5-1.82-4.47-5.65-6.1-10-6.34A26.75,26.75,0,0,0,604,332.7a11.27,11.27,0,0,0-4.86,10.09,31.34,31.34,0,0,0,1.4,6.8c1.84,6.17,5.16,11,11.82,12.85,3.42.95,6.76,2.17,10.12,3.32,2.73.94,5.55,1.82,6.54,5,.61,2,1.3,4,1.73,6a3.62,3.62,0,0,1-2.82,4,3,3,0,0,1-3.67-2.44c-.76-2.67-1.52-5.35-2.43-8a2,2,0,0,0-1.64-1c-4.18,1.08-8.32,2.3-12.52,3.5,1,2.92,1.74,5.76,2.82,8.48,1.76,4.45,4.54,8,9.55,9,7.12,1.46,13.48-.43,19.36-4.48C643.58,383,646,379.13,645,374a83.23,83.23,0,0,0-3.81-11.87,12,12,0,0,0-7.21-7.22A89.59,89.59,0,0,0,622.54,351c-5-1.18-8.46-3.53-9.2-9-.26-1.9.59-3.94,2-4.27,2.14-.5,3.25.17,4,2.53.61,1.91,1.11,3.85,1.67,5.79Zm-81.39,16.7-3.25-11.16-25.21,7.22,17,59.1,26.21-7.57c-1-3.46-1.94-6.48-2.74-9.54-.35-1.32-.86-1.59-2.18-1.14a80.24,80.24,0,0,1-8,2.31,2.38,2.38,0,0,1-2.09-.89c-1.1-3.29-1.86-6.69-3-10-.8-2.37.19-3.08,2.3-3.51,2.29-.48,4.52-1.29,6.77-2l-3.12-10.52c-2.87.83-5.46,1.6-8.05,2.33-1.14.32-1.85.15-2.17-1.29a64.48,64.48,0,0,0-2.41-8.45c-.65-1.73-.07-2.19,1.42-2.57C547.85,360.54,550.66,359.69,553.52,358.88ZM112.63,473.2c.84,3,1.61,5.73,2.39,8.47q7,24.48,14,49c.33,1.17.75,1.6,2,1.19,1.39-.47,2.82-.81,4.23-1.21l20.53-5.86-3.11-11.15-11.48,3.24-4-13.93,9.74-2.86c-.87-3-1.8-5.83-2.5-8.73-.4-1.66-1.22-1.71-2.57-1.29-2.49.78-5,1.46-7.67,2.23-1-3.61-2.09-7.07-3-10.55-.36-1.32.3-2,1.62-2.28,2.4-.56,4.79-1.21,7.14-2a1.68,1.68,0,0,0,.84-1.41c-.87-3.34-1.87-6.64-2.88-10.14ZM314,514.9l0,.8c3.84.43,7.66,1.06,11.51,1.25a170,170,0,0,0,66.48-10c16.94-6.13,32.29-15.26,46.48-26.34a6.5,6.5,0,0,0,1-1.38l-.28-.43Zm148.39-58-.37-.73L282.73,507.87l-.09.58c2.94.86,5.91,1.64,8.82,2.6a8.81,8.81,0,0,0,6.11-.07c2.83-1,5.79-1.72,8.7-2.55,16.66-4.73,33.34-9.42,50-14.2,13.44-3.86,26.84-7.87,40.27-11.74,17.4-5,34.83-9.95,52.24-15,2.07-.6,4.47-1,6-2.37C457.58,462.72,459.86,459.66,462.36,456.86Zm-195.6-27.92c6.29,10,12.46,19.62,18.47,29.36a38.31,38.31,0,0,1,3.9,8.07c2,6.15,3.66,12.41,5.45,18.6l13.64-3.9c-1-3.6-2-7.1-3-10.56-1.85-6.11-3.91-12.17-3.14-18.71a39.31,39.31,0,0,0,.45-4.41c0-8.83,0-17.67,0-26.5,0-.67-.08-1.35-.14-2.13-4,1.13-7.75,2.15-11.49,3.35-.69.22-1.67,1.16-1.64,1.72.26,5.14.7,10.27,1.13,15.39.18,2.15.46,4.29.7,6.43l-.66.17a6,6,0,0,1-.69-.92q-4.37-9-8.7-18c-.6-1.25-1.16-1.65-2.7-1.14C274.64,427,270.81,427.84,266.76,428.94Zm-32.82,21.51c2.43-.71,4.75-1.33,7-2.06,1.47-.47,2.31-.2,2.77,1.41,1.84,6.54,3.78,13,5.66,19.58,2.35,8.16,4.7,16.32,7,24.49.4,1.42.77,1.89,2.42,1.35,4.24-1.39,8.58-2.47,12.92-3.68L258,443.62c2.45-.7,4.87-1.42,7.31-2.06,1.34-.35,2-.85,1.51-2.44-1-3.07-1.9-6.19-2.84-9.33l-33.2,9.51Zm-51.23,2.62,17,59.08L224,505.21,220.78,494c-2.53.74-5,1.41-7.4,2.19-1.64.52-2.4.05-2.77-1.67-.56-2.56-1.36-5.07-2.09-7.59-3.64-12.6-7.29-25.19-11-38.08Zm43.62-12.51-14.72,4.23c.29,1.07.5,1.88.74,2.68,2.23,7.63,4.49,15.25,6.68,22.89,3.05,10.68,6,21.39,9.13,32.06a2.21,2.21,0,0,0,1.86,1.1c4.45-1.2,8.85-2.57,13.28-3.9ZM571.7,425.46a4.1,4.1,0,0,0-.89-.07l-38,11.06c-5.19,1.51-10.36,3.05-15.56,4.53-10.68,3-21.38,6.05-32.06,9.11a3.44,3.44,0,0,0-1.72,1c-1.76,2.24-3.41,4.56-5.45,7.33L569.92,432ZM271.64,518v-.53c-2-.86-4-1.84-6.07-2.52a7.63,7.63,0,0,0-3.89-.41c-3.15.73-6.22,1.83-9.33,2.75-11.7,3.46-23.38,7-35.1,10.35-13.67,3.93-27.38,7.71-41.21,11.6,1.23,1.13,2.27,2.06,3.29,3a4.17,4.17,0,0,0,4.76,1c4.51-1.59,9.15-2.8,13.75-4.12,11.36-3.25,22.73-6.43,34.08-9.7,10.61-3.06,21.19-6.2,31.8-9.28C266.34,519.4,269,518.72,271.64,518ZM581.49,311.35,513.6,330.87l.75,5.81,67.84-19.58ZM176.59,434.09a14.53,14.53,0,0,1-1.41-3.06c-.38-1.9-1.33-2.15-3-1.66-9.7,2.8-19.43,5.53-29.14,8.31q-11.57,3.31-23.11,6.71c-4.18,1.23-8.33,2.55-12.58,3.85l2.53,5.06Z" transform="translate(-25.03 -82.18)"></path>
  <path class="cls-3" d="M579.84,302.75l-67.09,19.4c-9-52.24-35-93.59-79.14-122.79-31.77-21-67.19-31-105.36-29C266,173.77,216.92,201.27,183.6,254.07S147.81,363,170.21,421c-4.62,1.29-9.42,2.61-14.21,4-7.79,2.24-15.57,4.53-23.36,6.78-4.82,1.39-9.66,2.73-14.48,4.11-4.08,1.17-8.15,2.35-12.21,3.58-1.36.41-2,.19-2.57-1.33A223.38,223.38,0,0,1,93,404.71c-1.52-6.71-2.72-13.51-3.63-20.33-1.06-7.94-1.85-15.93-2.37-23.93-.45-6.82-.53-13.68-.47-20.51a135.38,135.38,0,0,1,.94-14.5c.75-6.47,1.58-12.95,2.85-19.33C92.11,297,94,287.93,96.52,279a193.24,193.24,0,0,1,7.78-21.81c3.56-8.54,7.5-16.93,11.58-25.23,5.89-12,13.35-23,21.36-33.68,4.12-5.47,8.79-10.53,13.22-15.77,2-2.32,3.82-4.77,6-6.88,5.13-5,10.34-9.85,15.68-14.59,3.66-3.25,7.49-6.32,11.42-9.24,5.22-3.88,10.44-7.8,16-11.23,8.4-5.23,16.79-10.62,25.67-14.92C239,119,253.11,113.08,268,109.43c10.05-2.46,20.17-4.71,30.34-6.61a144.25,144.25,0,0,1,18.09-1.92c8.93-.52,17.89-1.11,26.82-.88,8.63.22,17.25,1.26,25.83,2.28a194.65,194.65,0,0,1,40.41,9.23c9.41,3.23,18.89,6.41,27.93,10.52A287.67,287.67,0,0,1,464.2,136.4c7.44,4.39,14.67,9.21,21.66,14.28a202,202,0,0,1,15.62,13c4.52,4,8.86,8.27,13.1,12.6a237.17,237.17,0,0,1,22.25,26.48,224,224,0,0,1,20.61,33.93,243.8,243.8,0,0,1,11.92,27.7c4,11.82,6.92,24,10.28,36.06A13.46,13.46,0,0,1,579.84,302.75Z" transform="translate(-25.03 -82.18)"></path>
  <path class="cls-1" d="M464.82,336.12c0-5.83-.08-11.42,0-17,0-2.27-.15-3.42-3-3.68s-5.7-1.79-8.49-2.92c-.43-.17-.76-1.16-.75-1.77.07-4.56.28-9.11.35-13.67,0-1.24-.41-2.49-.38-3.72.07-2.66.45-5.31.43-8,0-5.81-.19-11.62-.39-17.43a6.12,6.12,0,0,0-.84-2,7.33,7.33,0,0,0,.71-2.08q.34-7.54.49-15.1a20.91,20.91,0,0,0-.61-3.59c-2.16,1.32-4,2.63-6.05,3.65q-7.18,3.65-14.47,7.06c-3,1.39-6.11,2.41-9,3.94a5,5,0,0,0-2.13,3.2,35.54,35.54,0,0,0-.1,6.09l2,1.09c-2.31,2.65-2.64,13.05-.53,15-1.82.91-2.12,1.94.07,3.05-1.88,1.47-1.71,3.21-1.17,5.22.3,1.12-.36,2.46-.33,3.69.07,2.66.4,5.32.45,8,.08,4.48,0,9,0,13.45l-.68-.31-2.89,2.22.2.61-2.52-.69c.72-1,1.33-1.65,1.79-2.42.25-.42.54-1.21.34-1.45-.71-.87-1.52-2-2.48-2.24a5.42,5.42,0,0,0-3.47.83,35.11,35.11,0,0,0-4.3,3.28,3.86,3.86,0,0,0-.81,1.09c-1.66,2.88-3.3,5.78-5.08,8.89a51.79,51.79,0,0,1,13.27,22c-2.25,1.9-5.36,2.16-6.37,1a8.39,8.39,0,0,1-2,1.34c-8.5,2.56-17,5.11-25.54,7.53-1.1.31-2.4-.1-3.61-.13-.36,0-1,0-1,.22-1,2.52-3.46,2.21-5.36,2.79-6.72,2.05-13.5,3.91-20.25,5.87-4.15,1.2-8.29,2.46-12.44,3.66-15.76,4.57-31.51,9.17-47.28,13.68-11.51,3.3-23.06,6.44-34.55,9.78-1.26.37-2.63.58-3.7,2.19-.85,1.28-3.57,1.31-5.4,1.88-.56-2.34-1.57-4.31-1.27-6.05.22-1.28-.58-2.75.86-4.22,1.13-1.16.9-3.68,1.19-5.61.48-3.19.88-6.4,1.36-9.91-3.2,0-6.41,0-9.61,0-1.51,0-2.59.06-3.31-2-.57-1.63-2.61-3-4.3-3.9a2.74,2.74,0,0,1-1.63-3c.18-6.29.31-12.57.48-18.86.13-4.59.4-9.18.41-13.77,0-1.25-.81-2.48-1-3.76a6,6,0,0,1,.29-2.1,10.4,10.4,0,0,0,.54-3.24c-.05-.37-1.63-.51-2.52-.74-.21-.06-.57,0-.65-.08-1.34-1.95-3.39-1.74-5.3-1.65-3.76.18-7.51.55-11.26.8-1.51.1-1.9.85-1.91,2.31-.08,7.28-.26,14.55-.44,21.83-.08,3.3-.25,6.59-.37,9.89,0,.39-.19,1,0,1.14,2.47,1.66.22,3.2,0,4.79s-.47,3.42-.78,5.67l-9,.67L197,365.91l-2,2.7.41.6a30.57,30.57,0,0,0-5.54.64c-.66.19-1.33,1.66-1.34,2.55-.1,8.61-.06,17.21-.07,25.82,0,3.4-.11,6.79,0,10.18.06,1.27,1,2.51,1,3.78s-.12,2.85-.89,3.56c-1,.93-2.65,1.23-4.07,1.55-.34.08-1.13-.77-1.32-1.32-2.82-8.49-6-16.9-8.22-25.54a146.1,146.1,0,0,1-3.79-21.62,167.47,167.47,0,0,1,6.1-63.69,163.52,163.52,0,0,1,20.76-44,161.47,161.47,0,0,1,21.25-25.83c11.11-10.86,23.23-20.47,37.23-27.4a246.25,246.25,0,0,1,23.3-10.46,160.31,160.31,0,0,1,30-7.68A164.62,164.62,0,0,1,344.31,188a161,161,0,0,1,40.17,7.46,168.25,168.25,0,0,1,41.4,19.68,145.93,145.93,0,0,1,23.7,18.91c6.4,6.33,12,13.45,17.74,20.45,6.73,8.27,11.9,17.59,16.41,27.2a160.31,160.31,0,0,1,12.67,38.18c.36,1.91.81,3.82,1,5.75a2.11,2.11,0,0,1-.93,1.76c-9.62,2.81-19.27,5.53-28.92,8.25A26.15,26.15,0,0,1,464.82,336.12Z" transform="translate(-25.03 -82.18)"></path>
  <path class="cls-3" d="M191,551c9.36-2.6,18.43-5.07,27.46-7.66,7.2-2.06,14.34-4.3,21.53-6.4,7.4-2.16,14.84-4.21,22.24-6.36,7.93-2.29,15.9-4.49,23.75-7,2.72-.88,5,0,7.49.41,7.24,1.28,14.45,2.81,21.74,3.69A161,161,0,0,0,336.5,529c7.54-.09,15.08-1.07,22.61-1.77,11.78-1.09,23.17-4.13,34.29-7.9,16.12-5.47,31.42-12.79,45-23.18,7.63-5.82,15-12,22.4-18.12a29.2,29.2,0,0,0,2.44-2.82c1.76-1.88,3.5-3.64,6.18-4.39,12.71-3.59,25.36-7.34,38-11q10.34-3,20.7-6c12.15-3.47,24.31-6.93,37.2-10.6-20.14,47.39-51,85.25-93.51,113.25a248.44,248.44,0,0,1-190.46,34.82C248.7,584,218.78,570.38,191,551Z" transform="translate(-25.03 -82.18)"></path>
  <path class="cls-1" d="M187.18,424.47l311.36-89.82.8,6.8-6.07,1.79-27.38,8q-20.39,5.93-40.79,11.84c-14.51,4.18-29,8.28-43.55,12.46-13.47,3.88-26.91,7.83-40.37,11.73q-20.62,6-41.26,11.92t-41,11.9q-21.54,6.22-43.1,12.38-11.21,3.21-22.44,6.36c-3.32.94-3.35.95-4.91-2.09C188,426.76,187.67,425.7,187.18,424.47Z" transform="translate(-25.03 -82.18)"></path>
  <path class="cls-3" d="M386.09,431.45c.67,2.48,1.26,4.78,1.91,7.08,1.58,5.57,3.17,11.14,4.82,16.69.36,1.21,0,1.67-1.14,2-4.39,1.18-8.75,2.46-13.21,3.72l-17-59.1,14.8-4.27,6.09,21.3,5.51-1.32c-.81-2.87-1.56-5.6-2.35-8.33q-1.63-5.68-3.31-11.34c-.41-1.39-.14-2,1.49-2.44,4.27-1,8.46-2.41,12.8-3.68l17,59.05-14.7,4.33c-2.25-7.66-4.63-15.3-6.68-23-.54-2-1.19-2.24-2.86-1.5A23.59,23.59,0,0,1,386.09,431.45Z" transform="translate(-25.03 -82.18)"></path>
  <path class="cls-3" d="M470.94,397.08,464,372.48,476.17,369l16.94,59c-4.11,1.22-8.12,2.46-12.18,3.52-.44.12-1.35-.71-1.73-1.3-4.17-6.52-8.27-13.09-12.41-19.63a20.39,20.39,0,0,0-1.5-1.86l-.92.34c.5,2.05,1,4.12,1.52,6.15,1.74,6.24,3.52,12.48,5.38,19.07l-12.17,3.58-17-59.14,12.27-3.56c5.19,7.44,9.91,15.25,15.41,22.5Z" transform="translate(-25.03 -82.18)"></path>
  <path class="cls-3" d="M71.67,484.64c8-2.1,15.66-4.33,23.47-6.14a10.6,10.6,0,0,1,12.58,6.08,68.22,68.22,0,0,1,3.86,12.07c.89,3.4-1.18,5.61-3.74,7.43-.54.38-1,.81-2.09,1.63,4,.25,7.32.82,9.07,3.79a39.34,39.34,0,0,1,3.12,8.16c1.58,5,3,10.05,4.49,15.09a6,6,0,0,1,0,1.5L109,538c-1.9-6.65-3.68-12.95-5.52-19.23a34.17,34.17,0,0,0-1.93-5.19,2.9,2.9,0,0,0-1.9-1.38c-3.6-.52-4,.08-3,3.54,2.29,7.85,4.51,15.73,6.84,23.87l-14.77,4.25Zm18,5.9,3.8,13.11c3.78-1.1,4.57-2.09,3.9-5a53.28,53.28,0,0,0-1.85-6.32C94.51,489.55,92.77,489,89.67,490.54Z" transform="translate(-25.03 -82.18)"></path>
  <path class="cls-3" d="M590.69,366.49c2.5.64,4.53.88,6.32,1.67,3.51,1.57,4.35,5.13,5.33,8.36,1.85,6,3.43,12.18,5.2,18.56L594,399c-.87-2.81-1.74-5.55-2.56-8.32-1.29-4.37-2.46-8.77-3.81-13.12-1.4-4.52-1.46-4.5-6.74-4.13,1.9,9.16,5.09,17.9,7.36,27.11-4.48,1.34-8.88,2.71-13.33,3.89-.5.13-1.71-.74-1.9-1.36-2.62-8.8-5.12-17.64-7.64-26.48s-5.07-17.82-7.61-26.73c-.25-.89-.43-1.81-.74-2.68-.44-1.2,0-1.67,1.18-2,7.49-1.87,14.95-3.85,22.44-5.7A10.66,10.66,0,0,1,592,344.51a36.66,36.66,0,0,1,4.64,14c.4,3.14-1.48,5.24-4.09,6.74C592,365.59,591.46,366,590.69,366.49Zm-16.13-15.26,3.7,13.09c3.46-.24,4.52-1.4,4-4.44a47.25,47.25,0,0,0-1.43-5.42C579.68,350.78,578.87,350.34,574.56,351.23Z" transform="translate(-25.03 -82.18)"></path>
  <path class="cls-1" d="M159,550.93c-3,.93-5.43,1.76-7.94,2.48q-27.45,7.86-54.92,15.68c-8.52,2.43-17.06,4.82-25.56,7.31-2.09.61-3.4,0-4-2-3.22-11.07-6.39-22.16-9.59-33.23-2.56-8.84-5.16-17.66-7.7-26.5q-5.17-18-10.28-36-.9-3.15-1.87-6.27C36,468.78,36.39,468,40,466.91c4.39-1.33,8.78-2.65,13.19-3.92,11-3.16,22-6.23,32.9-9.46,1.83-.54,2.6-.12,3.11,1.61a39.11,39.11,0,0,0,1.66,4c-4.71,1.45-9.2,2.89-13.71,4.22-8.94,2.62-17.91,5.19-26.86,7.77-.52.15-1.05.25-1.58.35-1.81.35-2.55,1.58-2,3.41q4.85,16.85,9.7,33.7,6.22,21.58,12.45,43.16c1.21,4.2,2.58,8.36,3.56,12.61.77,3.33,1.59,3.85,4.88,2.88,11.07-3.24,22.11-6.6,33.19-9.81q20.24-5.88,40.55-11.54a4.23,4.23,0,0,1,3.09.74A60,60,0,0,1,159,550.93Z" transform="translate(-25.03 -82.18)"></path>
  <path class="cls-3" d="M509.65,382.39c-1.05-3.46-2-6.7-3-9.94-.51-1.67-1.45-2.79-3.41-2.41-1.33.26-2.47.8-2.15,2.46.6,3.11,1.08,6.26,2,9.29,2.72,9.5,5.59,19,8.44,28.42.83,2.75,1.88,3.39,4,2.72q2.77-.88,1.84-4.62l-2.71-10.81-3.54.26-2.2-8.15,17.41-5c1,3.45,1.87,6.77,2.81,10.09,1.88,6.61,3.72,13.23,5.72,19.8.38,1.27.23,1.67-1,1.92a21.05,21.05,0,0,0-4.23,1.17c-2.19.94-3.89,1.16-5.08-1.51-.53-1.18-1.6-.82-2.07.35-2,5-6.22,7.08-11.11,7.4a14.33,14.33,0,0,1-9.52-3.09c-4.85-3.65-6.08-9.21-7.67-14.48-2.5-8.28-4.32-16.77-7-25-3-9.47,2.61-16.79,10.42-19.75,4.39-1.66,9-2.64,13.81-1.21,4.58,1.35,7.92,3.83,9.63,8.32,1,2.66,1.84,5.4,2.92,8,.55,1.33.07,1.56-1.09,1.87C518.48,379.76,514.2,381.06,509.65,382.39Z" transform="translate(-25.03 -82.18)"></path>
  <path class="cls-3" d="M170.34,456.64l25.74,56.5L181,517.53c-1-2.86-1.83-5.41-2.72-8-.66-1.88-1.76-2.83-3.85-1.84a8.44,8.44,0,0,1-2.23.6c-1.25.21-1.41.73-1.07,2,.68,2.46,1.11,5,1.58,7.49a12.07,12.07,0,0,1,0,2.14l-15,4.29c-.56-3.5-1.08-6.75-1.59-10-1.26-8.12-2.54-16.23-3.74-24.35-.87-5.91-1.6-11.84-2.43-17.76a64.31,64.31,0,0,0-1.22-7.33c-.42-1.62.19-2.08,1.51-2.45C156.81,460.47,163.41,458.59,170.34,456.64Zm-2.49,41.95c1.46-.36,2.36-.65,3.27-.8,2-.33,2.34-1.16,1.51-3.08-1.85-4.24-3.42-8.61-5.12-12.92-.87-2.2-1.78-4.38-2.67-6.57l-.74.22Z" transform="translate(-25.03 -82.18)"></path>
  <path class="cls-3" d="M455.53,438.89c-5,1.37-9.3,2.46-13.56,3.83-1.37.44-1.74-.16-2.07-1-1.07-2.81-2.06-5.65-3.22-8.84a53.33,53.33,0,0,0-5.51,1.34c-.41.14-.75,1.36-.64,2,.43,2.59,1.13,5.13,1.54,7.72a2.15,2.15,0,0,1-.92,1.84q-6.4,2-12.9,3.73c-.41.11-1.47-.67-1.54-1.14-.89-5.83-1.6-11.68-2.46-17.51-.84-5.67-1.82-11.32-2.69-17-.71-4.6-1.34-9.21-2-13.81-.42-2.83-.87-5.66-1.32-8.49-.3-1.93-.27-3.13,2.35-3.75,6.44-1.52,12.74-3.64,19.18-5.54Zm-22.69-16.37-8.7-22.1a4.47,4.47,0,0,0-.38,2.55c.88,5.5,1.8,11,2.73,16.49S427.57,424.93,432.84,422.52Z" transform="translate(-25.03 -82.18)"></path>
  <path class="cls-1" d="M591.18,425.84c.77-2.44,1.3-4.64,2.18-6.69.29-.67,1.4-1.17,2.23-1.41,8.14-2.34,16.31-4.57,24.45-6.92,12.33-3.56,24.64-7.2,37-10.79,3.36-1,6.75-1.84,10.09-2.88,2.59-.81,2.88-1.53,2.13-4.2-2.45-8.7-4.87-17.41-7.36-26.09C659,356.91,656.07,347,653.18,337c-3.23-11.14-6.43-22.29-9.69-33.43-.83-2.83-1.51-3.1-4.23-2.31q-18.7,5.42-37.41,10.78a4.89,4.89,0,0,1-1.54.21,32.52,32.52,0,0,1-1.28-5.57c-.05-.52,1-1.47,1.71-1.68,4.4-1.3,8.86-2.38,13.27-3.64,10.43-3,20.83-6,31.25-9,2.64-.76,3.69-.21,4.41,2.29q5.92,20.52,11.8,41.05,8.83,30.68,17.68,61.36c.8,2.78.41,3.67-2.33,4.47-11.35,3.34-22.72,6.6-34.08,9.93-10.31,3-20.59,6.12-30.9,9.1-6.43,1.86-12.9,3.58-19.36,5.34A5.27,5.27,0,0,1,591.18,425.84Z" transform="translate(-25.03 -82.18)"></path>
  <path class="cls-3" d="M362.6,428.93c-4.84,1.38-9.3,2.59-13.72,3.94-1.47.45-1.61-.57-1.85-1.4-1.16-3.84-2.16-7.73-3.41-11.55-.44-1.34-.59-3.12-2.89-3-3,.09-4.2,1.53-3.44,4.56.72,2.84,1.42,5.69,2.23,8.51,2.49,8.68,5,17.37,7.61,26,.58,1.9.93,4.55,4.13,4,1.44-.25,2.68-.75,2.34-2.52-.73-3.79-1.47-7.57-2.38-11.32-.38-1.58-.7-2.4,1.51-2.87,4.21-.91,8.29-2.38,12.79-3.73,1,4.26,2.17,8.41,2.81,12.65.81,5.37-1.69,9.75-5.76,12.84-5.6,4.25-12,6.37-19.19,5a13.18,13.18,0,0,1-10.43-9.34c-3.15-9.44-5.83-19-8.68-28.58-.42-1.4-.52-2.91-1-4.28-3.33-9.07,3.69-16.85,11-19.43,4.68-1.64,9.41-2.77,14.53-1.16,4.12,1.29,7.09,3.61,8.67,7.44C359.38,419.26,360.87,424,362.6,428.93Z" transform="translate(-25.03 -82.18)"></path>
  <path class="cls-3" d="M634.91,342.19l-13.87,4c-.55-1.94-1.06-3.88-1.67-5.79-.75-2.36-1.87-3-4-2.53-1.44.34-2.28,2.37-2,4.27.73,5.43,4.18,7.78,9.2,9a89.59,89.59,0,0,1,11.39,3.85,12,12,0,0,1,7.21,7.22A83.23,83.23,0,0,1,645,374c1.07,5.13-1.37,9-5.59,11.91-5.88,4-12.24,5.94-19.36,4.48-5-1-7.79-4.55-9.55-9-1.08-2.72-1.86-5.56-2.82-8.48,4.2-1.19,8.34-2.42,12.52-3.5a2,2,0,0,1,1.64,1c.91,2.62,1.67,5.3,2.43,8a3,3,0,0,0,3.67,2.44,3.62,3.62,0,0,0,2.82-4c-.43-2-1.11-4-1.73-6-1-3.2-3.8-4.09-6.54-5-3.36-1.15-6.7-2.37-10.12-3.32-6.66-1.84-10-6.68-11.82-12.85a31.34,31.34,0,0,1-1.4-6.8A11.27,11.27,0,0,1,604,332.7a26.75,26.75,0,0,1,17.69-5.35c4.39.24,8.21,1.87,10,6.34C632.81,336.46,633.81,339.28,634.91,342.19Z" transform="translate(-25.03 -82.18)"></path>
  <path class="cls-3" d="M553.52,358.88c-2.86.81-5.66,1.66-8.5,2.38-1.49.38-2.07.84-1.42,2.57a64.48,64.48,0,0,1,2.41,8.45c.32,1.44,1,1.61,2.17,1.29,2.59-.73,5.18-1.5,8.05-2.33l3.12,10.52c-2.25.66-4.47,1.48-6.77,2-2.11.44-3.1,1.14-2.3,3.51,1.11,3.29,1.87,6.69,3,10a2.38,2.38,0,0,0,2.09.89,80.24,80.24,0,0,0,8-2.31c1.32-.45,1.83-.18,2.18,1.14.8,3.06,1.74,6.08,2.74,9.54L542.05,414l-17-59.1,25.21-7.22Z" transform="translate(-25.03 -82.18)"></path>
  <path class="cls-3" d="M112.63,473.2l25.18-7.27c1,3.51,2,6.81,2.88,10.14a1.68,1.68,0,0,1-.84,1.41c-2.35.75-4.74,1.39-7.14,2-1.31.31-2,1-1.62,2.28,1,3.48,2,6.94,3,10.55,2.65-.76,5.18-1.45,7.67-2.23,1.35-.42,2.17-.38,2.57,1.29.7,2.9,1.63,5.74,2.5,8.73l-9.74,2.86,4,13.93,11.48-3.24,3.11,11.15-20.53,5.86c-1.41.4-2.84.74-4.23,1.21-1.21.41-1.63,0-2-1.19q-7-24.5-14-49C114.24,478.93,113.48,476.19,112.63,473.2Z" transform="translate(-25.03 -82.18)"></path>
  <path class="cls-1" d="M314,514.9l125.25-36.12.28.43a6.5,6.5,0,0,1-1,1.38c-14.19,11.08-29.54,20.21-46.48,26.34a170,170,0,0,1-66.48,10c-3.85-.18-7.68-.82-11.51-1.25Z" transform="translate(-25.03 -82.18)"></path>
  <path class="cls-1" d="M462.36,456.86c-2.5,2.8-4.78,5.86-7.58,8.3-1.53,1.33-3.92,1.77-6,2.37-17.4,5-34.83,9.95-52.24,15-13.44,3.87-26.83,7.88-40.27,11.74-16.65,4.78-33.33,9.47-50,14.2-2.91.83-5.87,1.51-8.7,2.55a8.81,8.81,0,0,1-6.11.07c-2.91-1-5.88-1.74-8.82-2.6l.09-.58L462,456.13Z" transform="translate(-25.03 -82.18)"></path>
  <path class="cls-3" d="M266.76,428.94c4-1.1,7.88-2,11.59-3.22,1.54-.51,2.1-.11,2.7,1.14q4.31,9,8.7,18a6,6,0,0,0,.69.92l.66-.17c-.23-2.14-.52-4.28-.7-6.43-.43-5.13-.87-10.26-1.13-15.39,0-.56,1-1.51,1.64-1.72,3.74-1.19,7.53-2.21,11.49-3.35.05.79.14,1.46.14,2.13,0,8.83,0,17.67,0,26.5a39.31,39.31,0,0,1-.45,4.41c-.78,6.54,1.29,12.6,3.14,18.71,1,3.47,2,7,3,10.56L294.59,485c-1.79-6.19-3.44-12.45-5.45-18.6a38.31,38.31,0,0,0-3.9-8.07C279.22,448.56,273.05,438.92,266.76,428.94Z" transform="translate(-25.03 -82.18)"></path>
  <path class="cls-3" d="M233.94,450.45l-3.16-11.15,33.2-9.51c.95,3.14,1.81,6.26,2.84,9.33.53,1.59-.17,2.09-1.51,2.44-2.44.64-4.86,1.37-7.31,2.06l13.71,47.91c-4.33,1.21-8.68,2.29-12.92,3.68-1.65.54-2,.07-2.42-1.35-2.29-8.18-4.64-16.33-7-24.49-1.88-6.53-3.82-13-5.66-19.58-.45-1.6-1.3-1.88-2.77-1.41C238.69,449.12,236.38,449.74,233.94,450.45Z" transform="translate(-25.03 -82.18)"></path>
  <path class="cls-3" d="M182.71,453.07l14.78-4.19c3.73,12.89,7.38,25.48,11,38.08.73,2.52,1.53,5,2.09,7.59.38,1.72,1.13,2.19,2.77,1.67,2.42-.77,4.88-1.45,7.4-2.19L224,505.21l-24.27,6.94Z" transform="translate(-25.03 -82.18)"></path>
  <path class="cls-3" d="M226.33,440.56l17,59.05c-4.43,1.33-8.83,2.7-13.28,3.9a2.21,2.21,0,0,1-1.86-1.1c-3.1-10.67-6.08-21.38-9.13-32.06-2.18-7.64-4.45-15.26-6.68-22.89-.23-.8-.44-1.61-.74-2.68Z" transform="translate(-25.03 -82.18)"></path>
  <path class="cls-3" d="M571.7,425.46,569.92,432,478,458.37c2-2.77,3.69-5.09,5.45-7.33a3.44,3.44,0,0,1,1.72-1C495.85,447,506.55,444,517.23,441c5.19-1.48,10.37-3,15.56-4.53l38-11.06A4.1,4.1,0,0,1,571.7,425.46Z" transform="translate(-25.03 -82.18)"></path>
  <path class="cls-3" d="M271.64,518c-2.65.72-5.3,1.4-7.94,2.17-10.6,3.08-21.19,6.22-31.8,9.28-11.35,3.27-22.72,6.46-34.08,9.7-4.6,1.32-9.24,2.53-13.75,4.12a4.17,4.17,0,0,1-4.76-1c-1-.95-2.05-1.88-3.29-3,13.83-3.89,27.54-7.67,41.21-11.6,11.73-3.37,23.41-6.89,35.1-10.35,3.11-.92,6.18-2,9.33-2.75a7.63,7.63,0,0,1,3.89.41c2.07.68,4.05,1.67,6.07,2.52Z" transform="translate(-25.03 -82.18)"></path>
  <path class="cls-3" d="M581.49,311.35l.71,5.75-67.84,19.58-.75-5.81Z" transform="translate(-25.03 -82.18)"></path>
  <path class="cls-3" d="M176.59,434.09l-66.72,19.21-2.53-5.06c4.25-1.31,8.4-2.62,12.58-3.85q11.54-3.4,23.11-6.71c9.71-2.78,19.44-5.51,29.14-8.31,1.69-.49,2.64-.24,3,1.66A14.53,14.53,0,0,0,176.59,434.09Z" transform="translate(-25.03 -82.18)"></path>
  <path class="cls-2" d="M89.67,490.54c3.1-1.52,4.84-1,5.85,1.78a53.28,53.28,0,0,1,1.85,6.32c.67,2.91-.12,3.91-3.9,5Z" transform="translate(-25.03 -82.18)"></path>
  <path class="cls-2" d="M574.56,351.23c4.31-.89,5.11-.45,6.24,3.22a47.25,47.25,0,0,1,1.43,5.42c.55,3-.51,4.21-4,4.44Z" transform="translate(-25.03 -82.18)"></path>
  <path class="cls-2" d="M167.85,498.59l-3.76-23.15.74-.22c.89,2.19,1.8,4.37,2.67,6.57,1.7,4.31,3.27,8.68,5.12,12.92.84,1.92.49,2.75-1.51,3.08C170.2,497.94,169.31,498.22,167.85,498.59Z" transform="translate(-25.03 -82.18)"></path>
  <path class="cls-2" d="M432.84,422.52c-5.28,2.41-5.44,2.33-6.35-3.06s-1.85-11-2.73-16.49a4.47,4.47,0,0,1,.38-2.55Z" transform="translate(-25.03 -82.18)"></path>
  <path class="cls-3" d="M353.79,319a14.47,14.47,0,0,0-.94-1.84c-4.39-6.25-.58-14.57,5.41-17,2.39-1,4,.62,5.66,1.93s3.41,3,5.52,4.84c1.05-2.26,2-4.24,2.89-6.26,3.34-7.82,6.71-15.63,9.92-23.5.67-1.65,1.52-2,3-1.4,3.36,1.32,6.74,2.6,10,4.07a2.59,2.59,0,0,1,1,2.05c-.21,7.15-4.61,12.82-7,19.2-2.2,5.85-5,11.49-7.48,17.22-.64,1.44-.84,3.34-2.56,3.12L377.84,329c3.65.52,7.59.72,11.32,1.7,8.14,2.14,13.35,7.8,16.79,15.24,1.11,2.4,2.08,4.86,3.25,7.63L253.08,398.65a9.61,9.61,0,0,1-.3-2.41c1.26-9.09,2.46-18.18,3.92-27.24a91.59,91.59,0,0,1,3-13.46c2.34-7.29,7.24-12.75,13.63-16.84,2.89-1.86,6.25-3.11,8.85-5.29,2.9-2.44,5.18-5.6,7.71-8.48,1.33-1.51,2.68-3,3.88-4.64.75-1,1.94-2.46,1.66-3.28s-2.08-1.36-3.16-2.08a12.85,12.85,0,0,1-3.28-2.42c-4.34-5.67-8.62-11.38-12.72-17.21a21.15,21.15,0,0,1-3.66-7.22c-.59-2.68,0-5.63.11-8.46.1-2,.58-3.91-1.09-5.73-.83-.9-1-2.61-1.06-4-.16-2.36,0-4.73,0-7.1,0-1.21.63-2.65-1.15-3.34-.25-.1-.32-1-.24-1.52.5-3.48,1-7,1.6-10.43.63-3.62,1.38-7.22,2.06-10.84a10.43,10.43,0,0,0,0-1.41L257.5,236c0,6.32.07,12.4,0,18.48-.12,8.82-.41,17.64-.5,26.46,0,4.7.1,9.41.29,14.11.08,1.92-.26,2.9-2.52,2.81-3.5-.13-3.62-.24-3.41-3.76.33-5.6.38-11.21.74-16.8.52-8.07,1.23-16.12,1.85-24.18.19-2.43.27-4.87.52-7.29a19.52,19.52,0,0,1,.88-3.14l-.66-7.31h-13.3l-.15-.6c1.51-.59,3-1.19,4.53-1.75,8.65-3.18,17.3-6.38,26-9.52,4.76-1.73,9.45-3.9,14.37-4.88,4-.8,8.32-.21,12.5-.07s8.61.54,12.92.72c13.38.56,26.77,1.07,40,1.6l1,2a10.46,10.46,0,0,1,1.53-1.42,3.58,3.58,0,0,1,1.89-.66c2,.09,3.9.36,6.59.64-1,.86-1.54,1.65-2.25,1.88q-14.26,4.56-28.56,9a35.76,35.76,0,0,1-4.21.79c1.51,4.52,3.36,8.8,4.31,13.27s1.05,9.26,1.55,14.12c2.87.81,4.91,3.26,4.85,7-.08,5.09-.77,10.06-5.16,13.6a2.85,2.85,0,0,0-.91,2q.11,8.52.44,17a2,2,0,0,0,1,1.52c3.82.89,5.43,3.79,6.5,7.08.68,2.1,2,3.45,4,3.72,3.05.39,4.8,2.38,6.54,4.56a32.81,32.81,0,0,0,2.47,2.52Z" transform="translate(-25.03 -82.18)"></path>
  <path class="cls-1" d="M542.26,286.19l-3.82-2c1.25-4,1.77-7.91-.6-11.73a8.54,8.54,0,0,0-6.15-4.24c-6.31-.86-10.73,1.92-11.78,7.37-1.21,6.31,1.35,11.44,8.07,12.18-.62-1.84-1.09-3.57-1.78-5.21-.83-2-.58-3.24,1.76-3.59a15,15,0,0,0,1.52-.41c1.31,3.79,2.64,7.56,3.92,11.34.37,1.09-.1,1.58-1.26,2-5.08,1.75-12-.92-15-6.06-2.78-4.91-3.46-10.08-.45-15.11a14.7,14.7,0,0,1,13.67-7.54c6.15.12,12.07,5.56,13.52,12.09A14.14,14.14,0,0,1,542.26,286.19Z" transform="translate(-25.03 -82.18)"></path>
  <path class="cls-1" d="M234.85,144.51c2.44-1.84,4.51-2.13,7.11-.21,5,3.69,10.24,7,15.39,10.44l.51-.35-7.08-16.89,4.24-1.84,10.65,25c-3.33,2.49-3.74,2.5-7.2.18l-15.08-10.13-.59.31,7,16.72-4.19,1.91Z" transform="translate(-25.03 -82.18)"></path>
  <path class="cls-1" d="M292,129.46l-2.13,3.68c-7.79-2.38-12.38-1.58-15.26,2.57A10.7,10.7,0,0,0,275,148c2.52,3.19,7.76,4.46,12,2.89,3.24-1.2,5-3.6,4.9-6.74l-7.6,1.65-1.08-4.13,13.09-3.18a14.8,14.8,0,0,1,.72,3.32c-.16,7.71-4,12.43-11.26,14-10.26,2.26-18-6-17.81-14.71a14.61,14.61,0,0,1,12.36-13.83C285.31,126.46,287,126.77,292,129.46Z" transform="translate(-25.03 -82.18)"></path>
  <path class="cls-1" d="M135.24,251.61l1.49,3.94c-6.86,3.84-7.9,9.15-6.71,13.53s5.1,6.94,9.8,6.91a10.78,10.78,0,0,0,9.67-7.57c1-3.52.1-6.61-2.62-8.4-.49,1.24-1,2.44-1.45,3.63s-1,2.29-1.58,3.62L140,265.54c1.54-3.87,3-7.56,4.47-11.24a6.73,6.73,0,0,1,.59-1c6.29,1.66,9.85,8.06,9.31,12.67-1.05,9.12-5.91,14.16-14.65,14.9-6.49.55-13.46-5.28-14.66-12.2C123.92,262.29,127.87,253.88,135.24,251.61Z" transform="translate(-25.03 -82.18)"></path>
  <path class="cls-1" d="M515.41,254.33l16.16-8.19,2.09,4.14-24.31,12.27c-2.62-2.84-2.67-3.56-.83-6.65q4.07-6.87,8-13.79a5.12,5.12,0,0,0,.7-2.91l-15.91,8.09-2.26-4.19,24.28-12.15c2.63,3.23,2.63,3.55.65,6.92q-4.17,7.08-8.25,14.21a16.1,16.1,0,0,0-.77,1.81Z" transform="translate(-25.03 -82.18)"></path>
  <path class="cls-1" d="M124.41,375.22c-7.52.5-14.34-6.77-14.2-14.36A14.83,14.83,0,0,1,125,346.59a14.56,14.56,0,0,1,14.35,14.32C139.37,368.81,132.69,375.81,124.41,375.22Zm10.46-14.08c.06-5-4-9.54-8.64-9.6-7.11-.1-11.67,3.52-11.48,9.39.19,5.68,3.93,9.68,9.77,9.76C130.83,370.76,134.39,366.49,134.87,361.14Z" transform="translate(-25.03 -82.18)"></path>
  <path class="cls-1" d="M497,194.66l3.13,3.44-8.18,7,6.39,7.75,8.27-6.61,3,3.59-21.39,17.49-3-3.7c2.56-2,5-4,7.45-5.93,2.11-1.65,2.13-2.12.39-4.11-1.55-1.77-3-3.63-4.63-5.65l-9.75,7.77-2.91-3.59Z" transform="translate(-25.03 -82.18)"></path>
  <path class="cls-1" d="M202.67,199.32l-3.56,3-18.06-20.74,3.51-3,7.13,7.82,7.58-6.54-7-8.22,3.61-2.92,18,20.76-3.57,3-8.08-9.24-7.73,6.65Z" transform="translate(-25.03 -82.18)"></path>
  <path class="cls-1" d="M439.67,148.9c2.83,1.81,5.68,3.44,8.3,5.36a6.93,6.93,0,0,1,2.41,7.8c-1.24,3.64-3.74,5.6-7.21,5.66h-2.09l-.62,13.34c-3.09-.45-4.34-1.75-4.27-4.76.07-2.81.34-5.62.44-8.43a19.3,19.3,0,0,0-.3-2.81l-.73-.14c-1.55,2.67-3.14,5.32-4.64,8-.93,1.68-1.94,2.5-3.65.88a12.2,12.2,0,0,0-1.72-1.13Zm1.71,6.37c-.71,1.13-1.27,2-1.78,2.84-1.72,2.93-1.48,3.52,1.81,4.66.15.05.33,0,.46.09,1.73,1,2.8,0,3.74-1.28a2.58,2.58,0,0,0-.57-3.75A40.88,40.88,0,0,0,441.39,155.27Z" transform="translate(-25.03 -82.18)"></path>
  <path class="cls-1" d="M221.29,177.36c.33,1.53.63,2.88.91,4.23.41,2,0,2.52-3.76,4.37-2-9.24-4-18.43-5.72-27.66-.14-.72,1.47-1.82,2.33-2.67a2.11,2.11,0,0,1,3.09-.09q10,7.49,20.14,14.92l2.07,1.55c-.75.55-1.3,1-1.86,1.37-1.32.95-2.52,1.3-3.88-.13-1.91-2-3.88-2.51-6.34-.38C226.22,174.65,223.66,175.87,221.29,177.36Zm6.16-9.33-9.36-6.9c.68,3.74,1.21,6.91,1.89,10,.07.32,1.28.78,1.64.58C223.52,170.68,225.31,169.43,227.45,168Z" transform="translate(-25.03 -82.18)"></path>
  <path class="cls-1" d="M436.71,520.94c1.73.79,3.75,1.24,5.13,2.43,4.71,4.06,8.16,9,9.25,15.31a8.72,8.72,0,0,1-7,9.92,8.18,8.18,0,0,1-7.16-1.82c-4.67-4.07-8-9-9.2-15.13C426.6,526,430.68,521.39,436.71,520.94Zm5.1,23.19c3.68,0,5.57-2.5,4.67-5.46a27.75,27.75,0,0,0-6.68-11.17,4.45,4.45,0,0,0-5.75-1c-2,1.31-2.7,3-1.41,5.71a68.33,68.33,0,0,0,5.85,9.8C439.33,543.2,441.12,543.71,441.81,544.13Z" transform="translate(-25.03 -82.18)"></path>
  <path class="cls-1" d="M408.14,540.84c-.45-4.81,2.73-7.51,6.35-8.77,3.44-1.19,7.68.44,10.26,4a32.36,32.36,0,0,1,5.83,13.37,8.09,8.09,0,0,1-4.54,9.19c-4.09,2.11-8,1.77-11-1.77A27.94,27.94,0,0,1,408.14,540.84Zm17.66,9.88a23.88,23.88,0,0,0-5.23-12.25c-1.54-2-3.64-2.69-5.5-1.87a3.93,3.93,0,0,0-2.27,5.11,77.44,77.44,0,0,0,5.49,11.75,4,4,0,0,0,5.12,1.63C425.51,554.23,425.81,552.64,425.8,550.72Z" transform="translate(-25.03 -82.18)"></path>
  <path class="cls-1" d="M133.81,383.93l2.22-3.61c6.29,2.52,9.28,10.29,8.46,16.2-.87,6.28-6.37,11.09-12.8,11.9a13.42,13.42,0,0,1-12.94-5.22c-3.85-4.81-4.4-10.23-2.11-15.89,1.11-2.76,1.23-2.72,3.75-1.19.47.28.9.61,1.35.92-3.66,6.78-1.66,12.89,3.48,15.69,4.63,2.52,10.84.88,13.39-3.53C141.3,394.53,140.51,388.4,133.81,383.93Z" transform="translate(-25.03 -82.18)"></path>
  <path class="cls-1" d="M177.16,191.46V196c-3.9.41-7.17,1.87-9.44,5.25-1.47,2.19-1.55,4.56-1.34,7,.38,4.39,5.56,8.77,10,8.6,5.9-.24,9.59-4.69,10.32-12.6l4-.7c2.13,8.36-5,16.38-12.1,17.73s-15.34-4.53-16.7-11.29C160,200.69,167.3,191.61,177.16,191.46Z" transform="translate(-25.03 -82.18)"></path>
  <path class="cls-1" d="M322.48,577.16l-9.29-.79a2,2,0,0,1-.44-.17c-1.6-.56-4.07.95-4.8-1.25-.52-1.55.16-3.51.36-5.29.44-4,.92-8,1.36-12,.33-3,.62-6,1-9.33l14.55,1.47-.22,4.6-10-1c-.24,1.67-.54,3.19-.61,4.72,0,.38.68,1.06,1.13,1.14a23.2,23.2,0,0,0,4.88.51c3.45-.12,4.42-.15,3.49,4.84l-10-.95L313,571.5l10,1.25Z" transform="translate(-25.03 -82.18)"></path>
  <path class="cls-1" d="M309,138l1,7.87c2.78-.28,5.42-.44,8-.85,1.13-.18,2.24-.47,2.16,1-.06,1.26,1.16,3.31-1.28,3.62-4.23.55-8.48.9-13.06,1.37l-3.25-27.41,14.6-1.7.77,4.42-10.07,1.37.65,5.61a57.53,57.53,0,0,0,6-.57c4.19-.83,4.61-.5,4.11,4Z" transform="translate(-25.03 -82.18)"></path>
  <path class="cls-1" d="M363.93,123.51l14.59,2.7-1,4.41-9.68-1.67-1.27,5.59,9.9,1.89c.07.24.13.32.11.39-1,4.25-1,4.22-5.4,3.19-1.64-.38-3.33-.57-5.25-.89l-1.56,7.8c2.64.55,5.24,1.27,7.88,1.57,1.86.21,2.44.69,1.67,2.48a9.3,9.3,0,0,0-.25,2.42L359,150.7Z" transform="translate(-25.03 -82.18)"></path>
  <path class="cls-1" d="M138.82,298.21l2.49-9.57,4.49.84-3.72,14.41-26.71-7,3.71-14.19,4.36,1-2.41,9.7,5.47,1.66a70.74,70.74,0,0,0,2.12-7.94c.43-2.83,2.05-1.28,3.29-1.22,1.82.09,1.38,1.46,1.16,2.44a46,46,0,0,1-1.55,5.36c-.65,1.86-.07,2.76,1.84,3.11C135.09,297.17,136.79,297.7,138.82,298.21Z" transform="translate(-25.03 -82.18)"></path>
  <path class="cls-1" d="M429.37,148.71l-9-4.06c-.25.17-.44.23-.48.34-.6,1.63-2,3.56-1.53,4.82s2.82,1.61,4.36,2.35c1.33.64,2.68,1.23,4.1,1.88l-1.74,4-9.25-4.18c-1,2.15-2,4.17-2.82,6.26a2,2,0,0,0,.85,1.67c2.41,1.26,4.9,2.37,7.62,3.65l-1.75,4.18c-4.23-1.94-8.33-3.76-12.35-5.75-.38-.19-.53-1.58-.27-2.19,1.75-4.08,3.63-8.11,5.51-12.13,1.71-3.67,3.49-7.3,5.32-11.12l13.32,6.2Z" transform="translate(-25.03 -82.18)"></path>
  <path class="cls-1" d="M148.28,240c.93-1.54,1.78-2.93,2.62-4.33s1.59-2.68,2.55-4.3l3.76,2.22-5,8.74c2.09,1.21,4.06,2.43,6.12,3.47a1.81,1.81,0,0,0,1.6-.63,41.25,41.25,0,0,0,3.1-5.23c.86-1.8,1.77-2.45,3.45-1a13.58,13.58,0,0,0,1.79,1.11l-7.46,12.66-23.77-14,7.43-12.58,4,2.14c-1.32,2.24-2.43,4.37-3.79,6.35-1.12,1.63-1.61,2.81.78,3.67A17.18,17.18,0,0,1,148.28,240Z" transform="translate(-25.03 -82.18)"></path>
  <path class="cls-1" d="M400.76,563.22c1.84-.58,3.68-1.13,5.51-1.74,3.58-1.2,4.08-.89,4.49,3.08l-18.35,5.88a18.31,18.31,0,0,1,.76-3.82c1.83-3.88,3.87-7.66,5.7-11.55a19.69,19.69,0,0,0,1.69-5c.35-2.1-.18-4.32-2.27-5.19a5.7,5.7,0,0,0-4.35.25c-1.8,1-2.51,2.9-1.77,5.15-.38.15-.79.32-1.22.48-3.08,1.12-4,.39-3.56-2.93a9.61,9.61,0,0,1,11.44-7.87,8.5,8.5,0,0,1,5.86,10.89c-1.06,3.24-2.35,6.4-3.54,9.59-.29.77-.6,1.52-.9,2.29Z" transform="translate(-25.03 -82.18)"></path>
  <path class="cls-1" d="M392,150.38c1.89-2.44,3.8-4.87,5.67-7.33,2.13-2.8,4.17-5.68,6.38-8.41a2.75,2.75,0,0,1,2.18-.66,14.77,14.77,0,0,1,3.06,1.1c-5.69,7.53-11.3,15-17.1,22.39-.45.57-2.37.27-3.47-.06a2.79,2.79,0,0,1-1.71-1.89c-.29-5.33-.36-10.67-.54-16-.11-3.13-.33-6.26-.47-9.39,0-.75.06-1.51.11-2.45,1.34.4,2.62.48,3.47,1.13a3.83,3.83,0,0,1,1.3,2.66c.11,6.2.06,12.4.06,18.61Z" transform="translate(-25.03 -82.18)"></path>
  <path class="cls-1" d="M331.58,570.52A27.67,27.67,0,0,0,334,573.1a4,4,0,0,0,5.32-.22c1.12-1.2,1-3.31-.62-4.83-2.26-2.18-4.73-4.13-7-6.33-4.22-4.13-3.48-9.32,1.57-11.69,3.45-1.62,6.37-.39,9.11,1.74.56.44,1.09.91,2.48,2.07a26.79,26.79,0,0,0-2.57,1.45c-.93.68-1.68,1.4-2.73,0a3.24,3.24,0,0,0-2.17-1.26,4.84,4.84,0,0,0-3.24,1c-.44.47-.17,2.3.41,2.93,1.64,1.77,3.76,3.09,5.4,4.86s3.53,3.71,4.33,5.93c1.84,5.12-2.33,9.32-7.11,9.64a9.09,9.09,0,0,1-8.34-3.83c-1.12-1.48-.91-2.3.7-3C330.31,571.27,331,570.85,331.58,570.52Z" transform="translate(-25.03 -82.18)"></path>
  <path class="cls-1" d="M324.64,144.06l3.49-2.11-.25.69c1.77.87,3.47,2.06,5.35,2.47a3.64,3.64,0,0,0,3.15-1.63,4.09,4.09,0,0,0-.89-3.53c-2.39-2.59-5.2-4.8-7.61-7.37a9.38,9.38,0,0,1-2-4c-.73-2.92.81-5,3.15-6.5a7.32,7.32,0,0,1,8.1,0,32.09,32.09,0,0,1,3.37,2.68l-2.51,3a30.6,30.6,0,0,0-5-2,2.93,2.93,0,0,0-2.45,1.22,2.75,2.75,0,0,0,.53,2.52c1.56,1.63,3.4,3,5.07,4.51,2.54,2.31,5.29,4.42,5.11,8.51a7,7,0,0,1-3.45,6.22C333.77,151.07,326.24,149.94,324.64,144.06Z" transform="translate(-25.03 -82.18)"></path>
  <path class="cls-1" d="M460,161.5a30.78,30.78,0,0,0,2.76,2.15c1.15.7,1.21,1.49.92,2.74-.72,3.08-1.2,6.21-1.86,9.76a77.9,77.9,0,0,0,7.83-3.65c2.23-1.35,3.86-1,5.5.75a11.22,11.22,0,0,0,1.32,1c-4.08,1.87-7.91,3.91-12,5.39s-6.18,4.86-8.68,7.93c-.88,1.09-1.72,2.21-2.69,3.47l-3.62-2.86a60.16,60.16,0,0,1,4.89-6.36c2.72-2.73,2.91-6.21,3.56-9.6S459.26,165.27,460,161.5Z" transform="translate(-25.03 -82.18)"></path>
  <path class="cls-1" d="M347.76,554.38l-.61-4.46,15-1.43.46,4.62-5.11.6,2.05,22.7-4.7.71-2.19-22.74Z" transform="translate(-25.03 -82.18)"></path>
  <path class="cls-1" d="M468.67,204.93l-3.41-3.21,11.26-11.85c.38-.4.78-.78,1.17-1.17,3.4-3.41,3.4-3.41,0-7.23l2.77-3.27,10.88,10.26-3.14,3.21-3.77-3.21Z" transform="translate(-25.03 -82.18)"></path>
  <path class="cls-1" d="M137.84,339.33l-27.7-1.68.58-4.73,23.2,1.43c0-1.84.13-3.4,0-4.94-.24-2.23.66-3,2.81-2.73.67.1,1.36.09,2,.13Z" transform="translate(-25.03 -82.18)"></path>
  <path class="cls-1" d="M136.83,308.44l4.37.85-2,12.24L112,317.22l.7-4.66,22.83,3.61Z" transform="translate(-25.03 -82.18)"></path>
  <path class="cls-1" d="M468.92,530.93l-3.68,2.74L450.91,515.6l-4.17,3c-1.63-3.75-.3-6.11,5.17-9.22Z" transform="translate(-25.03 -82.18)"></path>
  <path class="cls-1" d="M494.84,237.18l-2.56-3.82L515.19,218l2.57,3.85Z" transform="translate(-25.03 -82.18)"></path>
  <path class="cls-1" d="M371.81,575.16c-1.67.16-2.19-1.33-2.2-2.67a2.45,2.45,0,0,1,2.8-2.47,2.3,2.3,0,0,1,2.41,2.72C374.74,574.64,373.68,575.13,371.81,575.16Z" transform="translate(-25.03 -82.18)"></path>
</svg>
